<svg version="1.0" id="Слой_1" xmlns="http://www.w3.org/2000/svg" xmlns:xlink="http://www.w3.org/1999/xlink" x="0px" y="0px"
	 viewBox="0 0 275.665771 275.665771" style="enable-background:new 0 0 275.665771 275.665771;" xml:space="preserve">
<style type="text/css">
	.st0{fill:#2A935A;}
	.st1{clip-path:url(#SVGID_1_);fill:#21834B;}
	.st2{fill:#49B279;}
	.st3{fill:#7BC299;}
	.st4{fill:#FFFFFF;}
	.st5{fill:#454545;}
	.st6{clip-path:url(#SVGID_2_);fill:#2A935A;}
	.st7{fill:none;stroke:#2A935A;stroke-miterlimit:10;}
	.st8{clip-path:url(#SVGID_3_);fill:#2A935A;}
	.st9{clip-path:url(#SVGID_4_);fill:#49B279;}
	.st10{clip-path:url(#SVGID_5_);fill:#D3D3D3;}
</style>
<path class="st0" d="M231.82753,212.154587v-3.120193c0-4.091949-3.347961-7.439911-7.439896-7.439911h-64.182709
	c-4.091934,0-7.439896,3.347961-7.439896,7.439911v3.120193c0,4.091934,3.347961,7.439896,7.439896,7.439896h64.182709
	C228.479568,219.594482,231.82753,216.246521,231.82753,212.154587z"/>
<path class="st0" d="M211.82753,202.154587v-3.120193c0-4.091949-3.347961-7.439911-7.439896-7.439911h-64.182709
	c-4.091934,0-7.439896,3.347961-7.439896,7.439911v3.120193c0,4.091934,3.347961,7.439896,7.439896,7.439896h64.182709
	C208.479568,209.594482,211.82753,206.246521,211.82753,202.154587z"/>
<path class="st0" d="M191.82753,192.154587v-3.120193c0-4.091949-3.347961-7.439911-7.439896-7.439911h-64.182701
	c-4.091949,0-7.439903,3.347961-7.439903,7.439911v3.120193c0,4.091934,3.347954,7.439896,7.439903,7.439896h64.182701
	C188.479568,199.594482,191.82753,196.246521,191.82753,192.154587z"/>
<g>
	<defs>
		<path id="SVGID_11_" d="M226.38765,201.594482h-12.56012v-2.56012c0-4.091919-3.347961-7.43988-7.43988-7.43988h-12.56012
			v-2.56012c0-4.091919-3.347961-7.43988-7.43988-7.43988H122.20491c-4.091919,0-7.43988,3.347961-7.43988,7.43988v3.120178
			c0,4.09198,3.347961,7.439941,7.43988,7.439941h12.56012v2.560059c0,4.09198,3.347961,7.439941,7.43988,7.439941h12.56012
			v2.560059c0,4.09198,3.347961,7.439941,7.43988,7.439941h64.182739c4.091919,0,7.43988-3.347961,7.43988-7.439941v-3.120178
			C233.82753,204.942444,230.479568,201.594482,226.38765,201.594482z"/>
	</defs>
	<clipPath id="SVGID_1_">
		<use xlink:href="#SVGID_11_"  style="overflow:visible;"/>
	</clipPath>
	<path class="st1" d="M182.046585,221.677979h-8.527222V207.5401c0-2.995056-2.450562-5.445618-5.445679-5.445618h-4.277405
		V67.709778c0-2.813416-2.30188-5.115295-5.115356-5.115295h-39.769287c-2.813477,0-5.115356,2.30188-5.115356,5.115295v146.769348
		c0,2.813416,2.30188,5.115356,5.115356,5.115356h32.806396v12.054321c0,2.995117,2.450562,5.445679,5.445679,5.445679h10.909973
		c0.006409,0,0.012512-0.000977,0.018921-0.000977c0.003235,0,0.006287,0.000977,0.009521,0.000977h13.944458
		c1.953064,0,3.551025-1.598022,3.551025-3.551086v-8.314392C185.59761,223.27594,183.999649,221.677979,182.046585,221.677979z"/>
</g>
<path id="Body" class="st2" d="M156.680939,219.594482h-39.769325c-2.813431,0-5.115334-2.301895-5.115334-5.115341V67.709824
	c0-2.813438,2.301903-5.115341,5.115334-5.115341h39.769325c2.813446,0,5.115341,2.301903,5.115341,5.115341v146.769318
	C161.79628,217.292587,159.494385,219.594482,156.680939,219.594482z"/>
<path class="st2" d="M119.558617,237.094482h-10.910019c-2.99511,0-5.445663-2.450546-5.445663-5.445663v-24.108673
	c0-2.995117,2.450554-5.445663,5.445663-5.445663h10.910019c2.995117,0,5.445663,2.450546,5.445663,5.445663v24.108673
	C125.00428,234.643936,122.553734,237.094482,119.558617,237.094482z"/>
<path class="st2" d="M94.675758,237.094482h13.944458c1.953087,0,3.551064-1.597977,3.551064-3.551071v-8.314362
	c0-1.953079-1.597977-3.551071-3.551064-3.551071H94.675758c-1.953087,0-3.551071,1.597992-3.551071,3.551071v8.314362
	C91.124687,235.496506,92.722672,237.094482,94.675758,237.094482z"/>
<path class="st2" d="M155.163696,237.094482h10.910019c2.995117,0,5.445663-2.450546,5.445663-5.445663v-24.108673
	c0-2.995117-2.450546-5.445663-5.445663-5.445663h-10.910019c-2.995117,0-5.445663,2.450546-5.445663,5.445663v24.108673
	C149.718033,234.643936,152.168579,237.094482,155.163696,237.094482z"/>
<path class="st2" d="M180.046555,237.094482h-13.944458c-1.953079,0-3.551056-1.597977-3.551056-3.551071v-8.314362
	c0-1.953079,1.597977-3.551071,3.551056-3.551071h13.944458c1.953094,0,3.551071,1.597992,3.551071,3.551071v8.314362
	C183.597626,235.496506,181.999649,237.094482,180.046555,237.094482z"/>
<path id="Tummy" class="st3" d="M149.651917,191.927811h-25.711273c-1.637733,0-2.977699-1.339951-2.977699-2.977692V110.90551
	c0-1.637733,1.339966-2.977692,2.977699-2.977692h25.711273c1.637741,0,2.977692,1.339958,2.977692,2.977692v78.044609
	C152.629608,190.58786,151.289658,191.927811,149.651917,191.927811z"/>
<path class="st2" d="M131.896286,88.571281h-15.000008c-2.75,0-5-2.25-5-5v-40c0-2.75,2.25-5,5-5h15.000008c2.75,0,5,2.25,5,5v40
	C136.896286,86.321281,134.646286,88.571281,131.896286,88.571281z"/>
<path class="st4" d="M129.430374,82.747421H119.36219c-2.199997,0-4-1.800003-4-4V46.395145c0-2.200001,1.800003-4,4-4h10.068184
	c2.199997,0,4,1.799999,4,4v32.352276C133.430374,80.947418,131.630371,82.747421,129.430374,82.747421z"/>
<path class="st5" d="M127.26844,77.207787h-5.744316c-1.650002,0-3-1.349998-3-3v-25.27301c0-1.649998,1.349998-3,3-3h5.744316
	c1.650002,0,2.999992,1.350002,2.999992,3v25.27301C130.268433,75.857788,128.918442,77.207787,127.26844,77.207787z"/>
<path class="st4" d="M121.769005,57.469482h-0.745453c-0.310623,0-0.564774-0.254147-0.564774-0.564774v-5.812759
	c0-0.310627,0.25415-0.564774,0.564774-0.564774h0.745453c0.310631,0,0.564774,0.254147,0.564774,0.564774v5.812759
	C122.333778,57.215336,122.079636,57.469482,121.769005,57.469482z"/>
<path class="st2" d="M156.79628,88.571281h-15c-2.75,0-5-2.25-5-5v-40c0-2.75,2.25-5,5-5h15c2.75,0,5,2.25,5,5v40
	C161.79628,86.321281,159.54628,88.571281,156.79628,88.571281z"/>
<path class="st4" d="M154.330368,82.747421h-10.068176c-2.199997,0-4-1.800003-4-4V46.395145c0-2.200001,1.800003-4,4-4h10.068176
	c2.199997,0,4,1.799999,4,4v32.352276C158.330368,80.947418,156.530365,82.747421,154.330368,82.747421z"/>
<path class="st5" d="M152.168442,77.207787h-5.744324c-1.649994,0-3-1.349998-3-3v-25.27301c0-1.649998,1.350006-3,3-3h5.744324
	c1.649994,0,3,1.350002,3,3v25.27301C155.168442,75.857788,153.818436,77.207787,152.168442,77.207787z"/>
<path class="st4" d="M146.669006,57.469482h-0.745453c-0.310623,0-0.564774-0.254147-0.564774-0.564774v-5.812759
	c0-0.310627,0.25415-0.564774,0.564774-0.564774h0.745453c0.310623,0,0.564774,0.254147,0.564774,0.564774v5.812759
	C147.23378,57.215336,146.97963,57.469482,146.669006,57.469482z"/>
<path class="st2" d="M61.629616,72.594482h-4c-1.650002,0-3-1.349998-3-3v-14c0-1.649998,1.349998-3,3-3h4
	c1.649998,0,3,1.350002,3,3v14C64.629616,71.244484,63.279613,72.594482,61.629616,72.594482z"/>
<path class="st0" d="M60.829613,66.594482h-2.399998c-0.990002,0-1.799999-0.809998-1.799999-1.799995v-8.400002
	c0-0.990002,0.809998-1.800003,1.799999-1.800003h2.399998c0.990002,0,1.800003,0.810001,1.800003,1.800003v8.400002
	C62.629616,65.784485,61.819614,66.594482,60.829613,66.594482z"/>
<path class="st2" d="M71.529282,72.594482h-4c-1.650002,0-3-1.349998-3-3v-14c0-1.649998,1.349998-3,3-3h4
	c1.650002,0,3,1.350002,3,3v14C74.529282,71.244484,73.179283,72.594482,71.529282,72.594482z"/>
<path class="st0" d="M70.729279,66.594482h-2.400002c-0.989998,0-1.799995-0.809998-1.799995-1.799995v-8.400002
	c0-0.990002,0.809998-1.800003,1.799995-1.800003h2.400002c0.990005,0,1.800003,0.810001,1.800003,1.800003v8.400002
	C72.529282,65.784485,71.719284,66.594482,70.729279,66.594482z"/>
<g id="Face_Shadow">
	<defs>
		<path id="SVGID_13_" d="M156.680939,219.594482h-39.769325c-2.813431,0-5.115334-2.301895-5.115334-5.115341V67.709824
			c0-2.813438,2.301903-5.115341,5.115334-5.115341h39.769325c2.813446,0,5.115341,2.301903,5.115341,5.115341v146.769318
			C161.79628,217.292587,159.494385,219.594482,156.680939,219.594482z"/>
	</defs>
	<clipPath id="SVGID_2_">
		<use xlink:href="#SVGID_13_"  style="overflow:visible;"/>
	</clipPath>
	<path class="st6" d="M156.734619,94.594482H59.629616c-2.75,0-5-2.25-5-5v-25h107.105003v25
		C161.734619,92.344482,159.484619,94.594482,156.734619,94.594482z"/>
</g>
<path id="Face" class="st2" d="M156.734619,92.594482H59.629616c-2.75,0-5-2.25-5-5v-25h107.105003v25
	C161.734619,90.344482,159.484619,92.594482,156.734619,92.594482z"/>
<path class="st4" d="M66.629616,77.594482h-4c-0.275002,0-0.5-0.224998-0.5-0.5v-4c0-0.275002,0.224998-0.5,0.5-0.5h4
	c0.275002,0,0.5,0.224998,0.5,0.5v4C67.129616,77.369484,66.904617,77.594482,66.629616,77.594482z"/>
<path class="st4" d="M86.62928,77.594482h-4c-0.275002,0-0.5-0.224998-0.5-0.5v-4c0-0.275002,0.224998-0.5,0.5-0.5h4
	c0.275002,0,0.5,0.224998,0.5,0.5v4C87.12928,77.369484,86.904282,77.594482,86.62928,77.594482z"/>
<path class="st4" d="M106.62928,77.594482h-4c-0.275002,0-0.5-0.224998-0.5-0.5v-4c0-0.275002,0.224998-0.5,0.5-0.5h4
	c0.275002,0,0.5,0.224998,0.5,0.5v4C107.12928,77.369484,106.904282,77.594482,106.62928,77.594482z"/>
<path class="st4" d="M76.462944,82.747421h-4c-0.274994,0-0.5-0.224998-0.5-0.5v-4c0-0.275002,0.225006-0.5,0.5-0.5h4
	c0.275002,0,0.5,0.224998,0.5,0.5v4C76.962944,82.522423,76.737946,82.747421,76.462944,82.747421z"/>
<path class="st4" d="M96.462616,82.747421h-4c-0.275002,0-0.5-0.224998-0.5-0.5v-4c0-0.275002,0.224998-0.5,0.5-0.5h4
	c0.275002,0,0.5,0.224998,0.5,0.5v4C96.962616,82.522423,96.737617,82.747421,96.462616,82.747421z"/>
<path class="st4" d="M116.462616,82.747421h-4c-0.275002,0-0.5-0.224998-0.5-0.5v-4c0-0.275002,0.224998-0.5,0.5-0.5h4
	c0.275002,0,0.5,0.224998,0.5,0.5v4C116.962616,82.522423,116.737617,82.747421,116.462616,82.747421z"/>
<line id="Mouth" class="st7" x1="54.629616" y1="77.594482" x2="129.962952" y2="77.594482"/>
<g>
	<defs>
		<path id="SVGID_15_" d="M156.680939,224.594482h-39.769325c-2.813431,0-5.115334-2.301895-5.115334-5.115341V72.709824
			c0-2.813438,2.301903-5.115341,5.115334-5.115341h39.769325c2.813446,0,5.115341,2.301903,5.115341,5.115341v146.769318
			C161.79628,222.292587,159.494385,224.594482,156.680939,224.594482z"/>
	</defs>
	<clipPath id="SVGID_3_">
		<use xlink:href="#SVGID_15_"  style="overflow:visible;"/>
	</clipPath>
	<path class="st8" d="M212.273544,144.511154H51.194298c-2.395832,0-4.356064-1.960236-4.356064-4.356064v-27.954544
		c0-2.395836,1.960232-4.356064,4.356064-4.356064h161.079254c2.395844,0,4.356064,1.960228,4.356064,4.356064v27.954544
		C216.629608,142.550919,214.669388,144.511154,212.273544,144.511154z"/>
</g>
<g>
	<defs>
		<path id="SVGID_17_" d="M149.651917,196.927811h-25.711273c-1.637733,0-2.977699-1.339951-2.977699-2.977692V115.90551
			c0-1.637733,1.339966-2.977692,2.977699-2.977692h25.711273c1.637741,0,2.977692,1.339958,2.977692,2.977692v78.044609
			C152.629608,195.58786,151.289658,196.927811,149.651917,196.927811z"/>
	</defs>
	<clipPath id="SVGID_4_">
		<use xlink:href="#SVGID_17_"  style="overflow:visible;"/>
	</clipPath>
	<path class="st9" d="M212.273544,144.511154H51.194298c-2.395832,0-4.356064-1.960236-4.356064-4.356064v-27.954544
		c0-2.395836,1.960232-4.356064,4.356064-4.356064h161.079254c2.395844,0,4.356064,1.960228,4.356064,4.356064v27.954544
		C216.629608,142.550919,214.669388,144.511154,212.273544,144.511154z"/>
</g>
<path class="st4" d="M212.273544,141.511154H51.194298c-2.395832,0-4.356064-1.960236-4.356064-4.356064v-27.954544
	c0-2.395836,1.960232-4.356064,4.356064-4.356064h161.079254c2.395844,0,4.356064,1.960228,4.356064,4.356064v27.954544
	C216.629608,139.550919,214.669388,141.511154,212.273544,141.511154z"/>
<g>
	<defs>
		<path id="SVGID_19_" d="M212.273544,141.511154H51.194298c-2.395832,0-4.356064-1.960236-4.356064-4.356064v-27.954544
			c0-2.395836,1.960232-4.356064,4.356064-4.356064h161.079254c2.395844,0,4.356064,1.960228,4.356064,4.356064v27.954544
			C216.629608,139.550919,214.669388,141.511154,212.273544,141.511154z"/>
	</defs>
	<clipPath id="SVGID_5_">
		<use xlink:href="#SVGID_19_"  style="overflow:visible;"/>
	</clipPath>
	<path class="st10" d="M52.536518,131.844482h-7.729897c-0.624279,0-1.135052-0.510773-1.135052-1.135056v-11.729889
		c0-0.624283,0.510773-1.135056,1.135052-1.135056h7.729897c0.624279,0,1.135052,0.510773,1.135052,1.135056v11.729889
		C53.67157,131.33371,53.160797,131.844482,52.536518,131.844482z"/>
	<path class="st10" d="M222.327896,131.844482h-7.729904c-0.624268,0-1.13504-0.510773-1.13504-1.135056v-11.729889
		c0-0.624283,0.510773-1.135056,1.13504-1.135056h7.729904c0.624283,0,1.135056,0.510773,1.135056,1.135056v11.729889
		C223.462952,131.33371,222.952179,131.844482,222.327896,131.844482z"/>
</g>
<path class="st2" d="M50.703182,130.177811h-7.729893c-0.624279,0-1.135052-0.510773-1.135052-1.13504v-11.729904
	c0-0.624275,0.510773-1.135048,1.135052-1.135048h7.729893c0.624279,0,1.135056,0.510773,1.135056,1.135048v11.729904
	C51.838238,129.667038,51.327461,130.177811,50.703182,130.177811z"/>
<path class="st2" d="M220.494568,130.177811h-7.729904c-0.624283,0-1.135056-0.510773-1.135056-1.13504v-11.729904
	c0-0.624275,0.510773-1.135048,1.135056-1.135048h7.729904c0.624268,0,1.13504,0.510773,1.13504,1.135048v11.729904
	C221.629608,129.667038,221.118835,130.177811,220.494568,130.177811z"/>
</svg>
