<?xml version="1.0" encoding="utf-8"?>
<!-- Generator: Adobe Illustrator 18.0.0, SVG Export Plug-In . SVG Version: 6.00 Build 0)  -->
<!DOCTYPE svg PUBLIC "-//W3C//DTD SVG 1.1//EN" "http://www.w3.org/Graphics/SVG/1.1/DTD/svg11.dtd">
<svg version="1.1" id="Слой_1" xmlns="http://www.w3.org/2000/svg" xmlns:xlink="http://www.w3.org/1999/xlink" x="0px" y="0px"
	 viewBox="0 0 1000 1000" enable-background="new 0 0 1000 1000" xml:space="preserve">
<path fill="#2A935A" d="M841,769.6v-11.3c0-14.8-12.1-27-27-27H581.2c-14.8,0-27,12.1-27,27v11.3c0,14.8,12.1,27,27,27H814
	C828.8,796.6,841,784.5,841,769.6z"/>
<path fill="#2A935A" d="M768.4,733.3V722c0-14.8-12.1-27-27-27H508.6c-14.8,0-27,12.1-27,27v11.3c0,14.8,12.1,27,27,27h232.8
	C756.3,760.3,768.4,748.2,768.4,733.3z"/>
<path fill="#2A935A" d="M695.9,697.1v-11.3c0-14.8-12.1-27-27-27H436.1c-14.8,0-27,12.1-27,27v11.3c0,14.8,12.1,27,27,27h232.8
	C683.7,724,695.9,711.9,695.9,697.1z"/>
<g>
	<g>
		<defs>
			<path id="SVGID_1_" d="M821.2,731.3h-45.6V722c0-14.8-12.1-27-27-27h-45.6v-9.3c0-14.8-12.1-27-27-27H443.3
				c-14.8,0-27,12.1-27,27v11.3c0,14.8,12.1,27,27,27h45.6v9.3c0,14.8,12.1,27,27,27h45.6v9.3c0,14.8,12.1,27,27,27h232.8
				c14.8,0,27-12.1,27-27v-11.3C848.2,743.4,836.1,731.3,821.2,731.3z"/>
		</defs>
		<clipPath id="SVGID_2_">
			<use xlink:href="#SVGID_1_"  overflow="visible"/>
		</clipPath>
		<path clip-path="url(#SVGID_2_)" fill="#21834B" d="M660.4,804.2h-30.9v-51.3c0-10.9-8.9-19.8-19.8-19.8h-15.5V245.6
			c0-10.2-8.4-18.6-18.6-18.6H431.4c-10.2,0-18.6,8.4-18.6,18.6V778c0,10.2,8.4,18.6,18.6,18.6h119v43.7c0,10.9,8.9,19.8,19.8,19.8
			h39.6c0,0,0,0,0.1,0c0,0,0,0,0,0h50.6c7.1,0,12.9-5.8,12.9-12.9V817C673.3,810,667.5,804.2,660.4,804.2z"/>
	</g>
</g>
<path id="Body" fill="#49B279" d="M568.4,796.6H424.1c-10.2,0-18.6-8.4-18.6-18.6V245.6c0-10.2,8.4-18.6,18.6-18.6h144.3
	c10.2,0,18.6,8.4,18.6,18.6V778C586.9,788.2,578.6,796.6,568.4,796.6z"/>
<path fill="#49B279" d="M433.7,860.1h-39.6c-10.9,0-19.8-8.9-19.8-19.8v-87.5c0-10.9,8.9-19.8,19.8-19.8h39.6
	c10.9,0,19.8,8.9,19.8,19.8v87.5C453.5,851.2,444.6,860.1,433.7,860.1z"/>
<path fill="#49B279" d="M343.4,860.1H394c7.1,0,12.9-5.8,12.9-12.9V817c0-7.1-5.8-12.9-12.9-12.9h-50.6c-7.1,0-12.9,5.8-12.9,12.9
	v30.2C330.6,854.3,336.4,860.1,343.4,860.1z"/>
<path fill="#49B279" d="M562.9,860.1h39.6c10.9,0,19.8-8.9,19.8-19.8v-87.5c0-10.9-8.9-19.8-19.8-19.8h-39.6
	c-10.9,0-19.8,8.9-19.8,19.8v87.5C543.1,851.2,552,860.1,562.9,860.1z"/>
<path fill="#49B279" d="M653.1,860.1h-50.6c-7.1,0-12.9-5.8-12.9-12.9V817c0-7.1,5.8-12.9,12.9-12.9h50.6c7.1,0,12.9,5.8,12.9,12.9
	v30.2C666,854.3,660.2,860.1,653.1,860.1z"/>
<path id="Tummy" fill="#7BC299" d="M542.9,696.2h-93.3c-5.9,0-10.8-4.9-10.8-10.8V402.3c0-5.9,4.9-10.8,10.8-10.8h93.3
	c5.9,0,10.8,4.9,10.8,10.8v283.1C553.7,691.4,548.8,696.2,542.9,696.2z"/>
<path fill="#49B279" d="M478.5,321.3h-54.4c-10,0-18.1-8.2-18.1-18.1V158.1c0-10,8.2-18.1,18.1-18.1h54.4c10,0,18.1,8.2,18.1,18.1
	v145.1C496.6,313.1,488.4,321.3,478.5,321.3z"/>
<path fill="#FFFFFF" d="M469.5,300.2H433c-8,0-14.5-6.5-14.5-14.5V168.3c0-8,6.5-14.5,14.5-14.5h36.5c8,0,14.5,6.5,14.5,14.5v117.4
	C484,293.6,477.5,300.2,469.5,300.2z"/>
<path fill="#454545" d="M461.7,280.1h-20.8c-6,0-10.9-4.9-10.9-10.9v-91.7c0-6,4.9-10.9,10.9-10.9h20.8c6,0,10.9,4.9,10.9,10.9v91.7
	C472.6,275.2,467.7,280.1,461.7,280.1z"/>
<path fill="#FFFFFF" d="M441.7,208.5H439c-1.1,0-2-0.9-2-2v-21.1c0-1.1,0.9-2,2-2h2.7c1.1,0,2,0.9,2,2v21.1
	C443.8,207.6,442.9,208.5,441.7,208.5z"/>
<path fill="#49B279" d="M568.8,321.3h-54.4c-10,0-18.1-8.2-18.1-18.1V158.1c0-10,8.2-18.1,18.1-18.1h54.4c10,0,18.1,8.2,18.1,18.1
	v145.1C586.9,313.1,578.8,321.3,568.8,321.3z"/>
<path fill="#FFFFFF" d="M559.8,300.2h-36.5c-8,0-14.5-6.5-14.5-14.5V168.3c0-8,6.5-14.5,14.5-14.5h36.5c8,0,14.5,6.5,14.5,14.5
	v117.4C574.4,293.6,567.8,300.2,559.8,300.2z"/>
<path fill="#454545" d="M552,280.1h-20.8c-6,0-10.9-4.9-10.9-10.9v-91.7c0-6,4.9-10.9,10.9-10.9H552c6,0,10.9,4.9,10.9,10.9v91.7
	C562.9,275.2,558,280.1,552,280.1z"/>
<path fill="#FFFFFF" d="M532.1,208.5h-2.7c-1.1,0-2-0.9-2-2v-21.1c0-1.1,0.9-2,2-2h2.7c1.1,0,2,0.9,2,2v21.1
	C534.1,207.6,533.2,208.5,532.1,208.5z"/>
<path fill="#49B279" d="M223.6,263.3h-14.5c-6,0-10.9-4.9-10.9-10.9v-50.8c0-6,4.9-10.9,10.9-10.9h14.5c6,0,10.9,4.9,10.9,10.9v50.8
	C234.4,258.4,229.6,263.3,223.6,263.3z"/>
<path fill="#2A935A" d="M220.7,241.6H212c-3.6,0-6.5-2.9-6.5-6.5v-30.5c0-3.6,2.9-6.5,6.5-6.5h8.7c3.6,0,6.5,2.9,6.5,6.5V235
	C227.2,238.6,224.3,241.6,220.7,241.6z"/>
<path fill="#49B279" d="M259.5,263.3H245c-6,0-10.9-4.9-10.9-10.9v-50.8c0-6,4.9-10.9,10.9-10.9h14.5c6,0,10.9,4.9,10.9,10.9v50.8
	C270.4,258.4,265.5,263.3,259.5,263.3z"/>
<path fill="#2A935A" d="M256.6,241.6h-8.7c-3.6,0-6.5-2.9-6.5-6.5v-30.5c0-3.6,2.9-6.5,6.5-6.5h8.7c3.6,0,6.5,2.9,6.5,6.5V235
	C263.1,238.6,260.2,241.6,256.6,241.6z"/>
<g id="Face_Shadow">
	<g>
		<defs>
			<path id="SVGID_3_" d="M568.4,796.6H424.1c-10.2,0-18.6-8.4-18.6-18.6V245.6c0-10.2,8.4-18.6,18.6-18.6h144.3
				c10.2,0,18.6,8.4,18.6,18.6V778C586.9,788.2,578.6,796.6,568.4,796.6z"/>
		</defs>
		<clipPath id="SVGID_4_">
			<use xlink:href="#SVGID_3_"  overflow="visible"/>
		</clipPath>
		<path clip-path="url(#SVGID_4_)" fill="#2A935A" d="M568.6,343.1H216.3c-10,0-18.1-8.2-18.1-18.1v-90.7h388.5V325
			C586.7,335,578.5,343.1,568.6,343.1z"/>
	</g>
</g>
<path id="Face" fill="#49B279" d="M568.6,335.9H216.3c-10,0-18.1-8.2-18.1-18.1v-90.7h388.5v90.7
	C586.7,327.7,578.5,335.9,568.6,335.9z"/>
<path fill="#FFFFFF" d="M241.7,281.5h-14.5c-1,0-1.8-0.8-1.8-1.8v-14.5c0-1,0.8-1.8,1.8-1.8h14.5c1,0,1.8,0.8,1.8,1.8v14.5
	C243.5,280.7,242.7,281.5,241.7,281.5z"/>
<path fill="#FFFFFF" d="M314.3,281.5h-14.5c-1,0-1.8-0.8-1.8-1.8v-14.5c0-1,0.8-1.8,1.8-1.8h14.5c1,0,1.8,0.8,1.8,1.8v14.5
	C316.1,280.7,315.3,281.5,314.3,281.5z"/>
<path fill="#FFFFFF" d="M386.8,281.5h-14.5c-1,0-1.8-0.8-1.8-1.8v-14.5c0-1,0.8-1.8,1.8-1.8h14.5c1,0,1.8,0.8,1.8,1.8v14.5
	C388.6,280.7,387.8,281.5,386.8,281.5z"/>
<path fill="#FFFFFF" d="M277.4,300.2h-14.5c-1,0-1.8-0.8-1.8-1.8v-14.5c0-1,0.8-1.8,1.8-1.8h14.5c1,0,1.8,0.8,1.8,1.8v14.5
	C279.2,299.4,278.4,300.2,277.4,300.2z"/>
<path fill="#FFFFFF" d="M349.9,300.2h-14.5c-1,0-1.8-0.8-1.8-1.8v-14.5c0-1,0.8-1.8,1.8-1.8h14.5c1,0,1.8,0.8,1.8,1.8v14.5
	C351.7,299.4,350.9,300.2,349.9,300.2z"/>
<path fill="#FFFFFF" d="M422.5,300.2H408c-1,0-1.8-0.8-1.8-1.8v-14.5c0-1,0.8-1.8,1.8-1.8h14.5c1,0,1.8,0.8,1.8,1.8v14.5
	C424.3,299.4,423.5,300.2,422.5,300.2z"/>
<line id="Mouth" fill="none" stroke="#2A935A" stroke-miterlimit="10" x1="198.2" y1="281.5" x2="471.5" y2="281.5"/>
<g>
	<g>
		<defs>
			<path id="SVGID_5_" d="M568.4,814.7H424.1c-10.2,0-18.6-8.4-18.6-18.6V263.8c0-10.2,8.4-18.6,18.6-18.6h144.3
				c10.2,0,18.6,8.4,18.6,18.6v532.4C586.9,806.4,578.6,814.7,568.4,814.7z"/>
		</defs>
		<clipPath id="SVGID_6_">
			<use xlink:href="#SVGID_5_"  overflow="visible"/>
		</clipPath>
		<path clip-path="url(#SVGID_6_)" fill="#2A935A" d="M770,524.2H185.7c-8.7,0-15.8-7.1-15.8-15.8V407c0-8.7,7.1-15.8,15.8-15.8H770
			c8.7,0,15.8,7.1,15.8,15.8v101.4C785.8,517.1,778.7,524.2,770,524.2z"/>
	</g>
</g>
<g>
	<g>
		<defs>
			<path id="SVGID_7_" d="M542.9,714.4h-93.3c-5.9,0-10.8-4.9-10.8-10.8V420.5c0-5.9,4.9-10.8,10.8-10.8h93.3
				c5.9,0,10.8,4.9,10.8,10.8v283.1C553.7,709.5,548.8,714.4,542.9,714.4z"/>
		</defs>
		<clipPath id="SVGID_8_">
			<use xlink:href="#SVGID_7_"  overflow="visible"/>
		</clipPath>
		<path clip-path="url(#SVGID_8_)" fill="#49B279" d="M770,524.2H185.7c-8.7,0-15.8-7.1-15.8-15.8V407c0-8.7,7.1-15.8,15.8-15.8H770
			c8.7,0,15.8,7.1,15.8,15.8v101.4C785.8,517.1,778.7,524.2,770,524.2z"/>
	</g>
</g>
<path fill="#FFFFFF" d="M770,513.3H185.7c-8.7,0-15.8-7.1-15.8-15.8V396.1c0-8.7,7.1-15.8,15.8-15.8H770c8.7,0,15.8,7.1,15.8,15.8
	v101.4C785.8,506.2,778.7,513.3,770,513.3z"/>
<g>
	<g>
		<defs>
			<path id="SVGID_9_" d="M770,513.3H185.7c-8.7,0-15.8-7.1-15.8-15.8V396.1c0-8.7,7.1-15.8,15.8-15.8H770c8.7,0,15.8,7.1,15.8,15.8
				v101.4C785.8,506.2,778.7,513.3,770,513.3z"/>
		</defs>
		<clipPath id="SVGID_10_">
			<use xlink:href="#SVGID_9_"  overflow="visible"/>
		</clipPath>
		<path clip-path="url(#SVGID_10_)" fill="#D3D3D3" d="M190.6,478.3h-28c-2.3,0-4.1-1.9-4.1-4.1v-42.6c0-2.3,1.9-4.1,4.1-4.1h28
			c2.3,0,4.1,1.9,4.1,4.1v42.6C194.7,476.4,192.8,478.3,190.6,478.3z"/>
	</g>
	<g>
		<defs>
			<path id="SVGID_11_" d="M770,513.3H185.7c-8.7,0-15.8-7.1-15.8-15.8V396.1c0-8.7,7.1-15.8,15.8-15.8H770
				c8.7,0,15.8,7.1,15.8,15.8v101.4C785.8,506.2,778.7,513.3,770,513.3z"/>
		</defs>
		<clipPath id="SVGID_12_">
			<use xlink:href="#SVGID_11_"  overflow="visible"/>
		</clipPath>
		<path clip-path="url(#SVGID_12_)" fill="#D3D3D3" d="M806.5,478.3h-28c-2.3,0-4.1-1.9-4.1-4.1v-42.6c0-2.3,1.9-4.1,4.1-4.1h28
			c2.3,0,4.1,1.9,4.1,4.1v42.6C810.6,476.4,808.8,478.3,806.5,478.3z"/>
	</g>
</g>
<path fill="#49B279" d="M183.9,472.2h-28c-2.3,0-4.1-1.9-4.1-4.1v-42.6c0-2.3,1.9-4.1,4.1-4.1h28c2.3,0,4.1,1.9,4.1,4.1v42.6
	C188,470.4,186.2,472.2,183.9,472.2z"/>
<path fill="#49B279" d="M799.9,472.2h-28c-2.3,0-4.1-1.9-4.1-4.1v-42.6c0-2.3,1.9-4.1,4.1-4.1h28c2.3,0,4.1,1.9,4.1,4.1v42.6
	C804,470.4,802.1,472.2,799.9,472.2z"/>
<text transform="matrix(1 0 0 1 345.8423 461)" font-family="'MyriadPro-Regular'" font-size="40">SOME TEXT HERE</text>
</svg>
